<?xml version="1.0" standalone="no"?>
<!DOCTYPE svg PUBLIC "-//W3C//DTD SVG 20010904//EN"
 "http://www.w3.org/TR/2001/REC-SVG-20010904/DTD/svg10.dtd">
<svg version="1.0" xmlns="http://www.w3.org/2000/svg"
 width="500.000000pt" height="500.000000pt" viewBox="0 0 500.000000 500.000000"
 preserveAspectRatio="xMidYMid meet">

<g transform="translate(0.000000,500.000000) scale(0.100000,-0.100000)"
fill="#000000" stroke="none">
<path d="M2756 3468 c-75 -8 -269 -64 -331 -96 -16 -8 -57 -42 -89 -75 -63
-64 -92 -122 -74 -145 8 -10 3 -21 -22 -47 -39 -40 -72 -50 -103 -31 -57 37
-157 28 -276 -26 -36 -16 -86 -38 -111 -48 -489 -193 -607 -256 -780 -417
-101 -94 -194 -245 -246 -400 -37 -112 -44 -259 -16 -329 l21 -51 -72 -5 c-85
-6 -131 -27 -145 -66 -13 -38 -1 -57 51 -83 34 -18 75 -24 237 -35 107 -7 215
-18 240 -25 29 -7 138 -10 300 -8 287 2 390 -4 422 -25 53 -34 135 -39 342
-22 226 19 353 44 590 119 l99 31 136 -12 c205 -17 328 -2 619 77 279 76 416
134 589 250 184 123 241 204 293 416 18 72 40 147 51 169 10 21 16 42 14 46
-3 5 -31 6 -63 3 -66 -6 -146 13 -332 79 -211 75 -232 79 -334 68 -50 -6 -143
-15 -206 -20 -124 -10 -232 -38 -274 -71 -35 -28 -33 -20 14 47 22 32 47 79
54 105 15 51 32 158 27 174 -2 6 -7 39 -12 74 -15 101 -39 143 -144 248 -104
104 -107 118 -25 107 50 -7 80 -20 80 -34 0 -6 14 -10 30 -10 17 0 39 -9 50
-20 11 -11 20 -16 20 -11 0 15 -42 41 -66 41 -11 0 -29 9 -38 19 -25 28 -121
38 -146 16 -16 -15 -21 -15 -47 -2 -65 33 -180 42 -327 25z m328 -42 c45 -20
80 -48 143 -114 46 -48 90 -101 98 -119 43 -90 45 -277 5 -371 -56 -130 -180
-237 -345 -299 -100 -38 -164 -55 -178 -46 -4 3 0 11 10 18 10 7 -40 -6 -112
-31 -71 -24 -143 -44 -158 -44 -37 0 -114 33 -207 90 -93 57 -115 95 -136 237
-8 54 -18 117 -23 141 -18 90 21 173 117 245 29 22 51 41 49 43 -2 2 -17 -2
-35 -8 -17 -7 -34 -10 -37 -6 -8 8 13 59 33 82 38 41 131 71 147 47 6 -11 -33
-51 -49 -51 -6 0 -3 -8 6 -17 16 -15 20 -15 55 0 65 27 79 28 134 8 68 -26 75
-20 10 8 -62 26 -91 26 -141 1 -61 -31 -61 -23 0 11 48 27 51 31 6 13 -11 -4
-13 0 -9 15 13 50 129 48 241 -4 65 -30 68 -24 5 10 -39 20 -42 24 -18 19 195
-40 333 -242 338 -497 1 -73 -2 -89 -30 -149 -29 -62 -36 -69 -91 -97 -34 -17
-64 -36 -68 -43 -5 -8 1 -7 16 3 14 9 42 22 63 28 39 13 71 49 103 116 29 62
27 246 -5 338 -51 149 -132 249 -239 293 -60 25 -78 28 -177 27 -119 -1 -209
-8 -225 -18 -5 -3 -10 -2 -10 4 0 20 64 54 177 92 153 52 193 58 348 55 117
-2 136 -5 189 -30z m-969 -360 c21 -15 45 -85 45 -136 0 -19 7 -73 16 -120 8
-47 15 -132 16 -190 1 -58 4 -93 6 -77 4 31 22 37 22 7 0 -11 4 -20 9 -20 5 0
7 10 4 23 -5 22 -5 22 12 -2 20 -26 20 -25 -40 -56 -11 -6 -25 -21 -31 -33 -6
-12 -13 -24 -15 -26 -2 -2 -4 39 -5 92 0 91 -2 102 -37 172 -20 41 -51 91 -68
110 -34 39 -25 16 20 -53 45 -67 63 -126 68 -217 5 -81 3 -88 -26 -144 -32
-60 -37 -86 -7 -42 9 14 28 39 44 55 15 16 34 40 43 53 9 13 32 32 51 42 38
21 35 21 168 -52 30 -16 71 -33 90 -37 44 -9 50 -18 50 -77 0 -43 -4 -50 -50
-94 -51 -49 -142 -114 -159 -114 -12 0 -21 25 -21 60 0 46 -84 196 -124 220
-16 10 -15 6 5 -16 39 -42 97 -162 104 -215 l7 -46 -79 -13 c-134 -21 -229
-56 -302 -112 -33 -25 -161 -25 -211 0 -74 37 -125 187 -135 397 -6 118 -4
147 19 245 5 21 4 20 -8 -5 -8 -16 -17 -55 -21 -85 l-7 -54 -39 80 c-56 119
-99 148 -55 38 32 -80 39 -119 27 -143 -11 -19 -14 -18 -77 29 -95 73 -101 61
-11 -23 76 -71 127 -131 127 -151 0 -6 -19 8 -42 31 -41 39 -56 47 -85 44 -27
-2 -11 -45 37 -95 28 -29 50 -56 50 -59 0 -4 -10 -7 -21 -7 -18 0 -19 -2 -9
-15 16 -19 3 -19 -30 0 -14 8 -38 14 -53 15 -16 0 -37 5 -48 11 -29 15 -61 2
-57 -24 2 -16 24 -33 73 -59 l70 -37 -76 -1 c-108 0 -167 -20 -333 -109 -39
-21 -51 -31 -36 -31 12 0 49 16 83 36 113 66 181 87 282 88 124 0 198 -26 307
-108 133 -101 157 -140 143 -232 -9 -61 -52 -108 -122 -134 -52 -19 -78 -21
-357 -22 -283 -1 -306 0 -381 21 -119 33 -177 98 -220 245 -15 50 -15 69 -6
140 22 154 62 256 155 399 123 188 321 323 711 484 127 53 266 110 310 129 63
26 94 34 146 34 39 0 72 -5 84 -14z m63 -42 c-11 -23 -13 -24 -19 -7 -12 29
-10 33 11 33 17 0 18 -3 8 -26z m1889 -330 c189 -67 290 -94 352 -94 27 0 32
-3 26 -17 -3 -10 -20 -67 -36 -128 -58 -211 -92 -274 -192 -354 -205 -162
-384 -242 -752 -336 -261 -67 -353 -76 -555 -53 l-105 11 -115 -37 c-63 -21
-179 -53 -257 -71 -229 -54 -564 -72 -636 -34 l-28 15 19 25 c25 32 50 115 58
196 15 144 131 238 343 278 42 8 92 15 112 15 40 0 121 49 192 115 21 19 60
47 85 60 26 14 75 45 109 69 38 27 78 47 105 51 56 9 78 22 78 43 0 12 17 22
58 34 138 42 175 44 341 22 33 -5 42 -3 39 7 -5 16 -47 27 -140 37 l-72 7 65
41 c149 96 214 117 444 144 247 29 247 29 462 -46z m-1213 -244 c17 -16 -37
-32 -85 -27 -27 3 -48 3 -48 -1 4 -26 -1 -30 -131 -115 l-26 -16 0 42 c0 23
-3 50 -8 59 -6 14 1 17 48 23 31 4 54 11 51 15 -4 6 29 19 90 35 17 5 99 -7
109 -15z"/>
<path d="M2870 3356 c0 -2 7 -7 16 -10 8 -3 12 -2 9 4 -6 10 -25 14 -25 6z"/>
<path d="M2956 3308 c16 -11 63 -53 104 -92 65 -62 68 -64 25 -16 -54 60 -134
130 -149 130 -5 0 4 -10 20 -22z"/>
<path d="M2620 3266 c109 -38 152 -65 234 -144 68 -67 73 -70 35 -24 -66 79
-147 136 -236 166 -43 14 -83 26 -88 25 -6 0 19 -11 55 -23z"/>
<path d="M2680 3200 c8 -5 20 -10 25 -10 6 0 3 5 -5 10 -8 5 -19 10 -25 10 -5
0 -3 -5 5 -10z"/>
<path d="M2670 3148 c98 -54 233 -173 228 -200 -2 -7 3 -12 10 -10 6 1 13 -2
13 -8 1 -5 2 -14 3 -19 1 -13 26 -37 26 -26 0 5 12 -2 27 -16 30 -27 -54 74
-132 159 -55 60 -218 172 -250 172 -11 0 23 -24 75 -52z"/>
<path d="M2780 3145 c30 -30 57 -55 59 -55 3 0 -19 25 -49 55 -30 30 -57 55
-59 55 -3 0 19 -25 49 -55z"/>
<path d="M2502 3080 c0 -8 6 -31 13 -50 7 -19 13 -28 13 -20 0 8 -6 31 -13 50
-7 19 -13 28 -13 20z"/>
<path d="M2865 3050 c47 -55 48 -56 37 -35 -6 11 -23 31 -39 45 l-28 25 30
-35z"/>
<path d="M2705 3058 c11 -7 65 -58 120 -113 67 -68 82 -80 47 -39 -28 34 -49
64 -45 67 9 9 -35 44 -92 72 -27 14 -41 20 -30 13z m100 -68 c10 -11 16 -20
13 -20 -3 0 -13 9 -23 20 -10 11 -16 20 -13 20 3 0 13 -9 23 -20z"/>
<path d="M3196 2980 c3 -19 10 -66 14 -105 l9 -70 -4 80 c-2 44 -8 91 -14 105
-10 23 -11 22 -5 -10z"/>
<path d="M2850 2957 c0 -2 15 -16 33 -33 l32 -29 -29 33 c-28 30 -36 37 -36
29z"/>
<path d="M2790 2883 c14 -9 62 -52 108 -95 46 -43 88 -78 93 -78 6 0 -17 23
-50 50 -34 28 -68 62 -77 75 -9 14 -31 34 -49 45 -39 24 -60 27 -25 3z"/>
<path d="M2455 2809 c-10 -30 0 -33 13 -4 6 14 7 25 2 25 -5 0 -12 -9 -15 -21z"/>
<path d="M3193 2760 c-5 -22 -7 -37 -2 -35 9 6 23 64 17 70 -2 3 -9 -13 -15
-35z"/>
<path d="M2340 2777 c0 -5 11 -25 26 -44 34 -45 54 -95 54 -138 0 -35 15 -51
17 -17 0 9 3 33 7 52 4 24 4 28 -2 15 -8 -17 -11 -15 -23 20 -7 22 -14 45 -14
51 0 15 -65 76 -65 61z"/>
<path d="M2348 2679 c12 -20 22 -45 22 -57 0 -11 6 -22 13 -25 21 -8 -10 77
-36 100 -20 18 -20 17 1 -18z"/>
<path d="M2670 2678 c0 -6 18 -64 32 -100 6 -16 14 -28 18 -28 4 0 -4 28 -17
63 -24 59 -33 77 -33 65z"/>
<path d="M2520 2655 c14 -17 36 -20 45 -5 3 5 0 7 -8 4 -8 -3 -18 -1 -22 5 -3
6 -11 11 -17 11 -7 0 -6 -6 2 -15z"/>
<path d="M2082 2994 c15 -16 36 -49 48 -74 16 -36 19 -39 15 -15 -7 36 -54
106 -75 113 -8 3 -3 -8 12 -24z"/>
<path d="M1626 2735 c-9 -26 -7 -32 5 -12 6 10 9 21 6 23 -2 3 -7 -2 -11 -11z"/>
<path d="M2030 2350 c-8 -5 -10 -10 -5 -10 6 0 17 5 25 10 8 5 11 10 5 10 -5
0 -17 -5 -25 -10z"/>
<path d="M1937 2309 c-33 -25 -59 -72 -51 -93 10 -26 68 -20 101 9 l28 26 -40
-21 c-45 -23 -61 -25 -70 -9 -7 11 13 69 24 69 3 0 17 9 31 20 34 26 13 25
-23 -1z"/>
<path d="M3890 2110 c-8 -5 -10 -10 -5 -10 6 0 17 5 25 10 8 5 11 10 5 10 -5
0 -17 -5 -25 -10z"/>
<path d="M3360 1939 c0 -5 5 -7 10 -4 6 3 10 8 10 11 0 2 -4 4 -10 4 -5 0 -10
-5 -10 -11z"/>
<path d="M2836 1861 c-4 -5 3 -7 14 -4 23 6 26 13 6 13 -8 0 -17 -4 -20 -9z"/>
<path d="M3380 3336 c0 -5 14 -22 32 -36 26 -22 32 -34 32 -67 1 -23 8 -46 19
-57 24 -24 22 -73 -3 -88 -11 -7 -20 -21 -20 -30 0 -10 -10 -28 -21 -39 -12
-12 -15 -20 -8 -17 8 2 22 19 31 38 10 19 24 38 33 42 21 12 19 76 -2 100 -10
11 -18 35 -19 54 -1 27 -10 45 -37 72 -21 20 -37 33 -37 28z"/>
</g>
</svg>
